HIERARCHY
ROOT Hips
{
	OFFSET -3.958830 18.904000 13.208200
	CHANNELS 6 Xposition Yposition Zposition Zrotation Yrotation Xrotation 
	JOINT LHipJoint
	{
		OFFSET 0.000000 0.000000 0.000000
		CHANNELS 3 Zrotation Yrotation Xrotation
		JOINT LeftUpLeg
		{
			OFFSET 1.800000 -1.400000 0.085000
			CHANNELS 3 Zrotation Yrotation Xrotation
			JOINT LeftLeg
			{
				OFFSET 2.215000 -6.000000 0.000000
				CHANNELS 3 Zrotation Yrotation Xrotation
				JOINT LeftFoot
				{
					OFFSET 2.500000 -6.900000 0.000000
					CHANNELS 3 Zrotation Yrotation Xrotation
					JOINT LeftToeBase
					{
						OFFSET 0.200000 -0.500000 1.950000
						CHANNELS 3 Zrotation Yrotation Xrotation
						End Site
						{
							OFFSET 0.000000 0.000000 0.000000
						}
					}
				}
			}
		}
	}
	JOINT RHipJoint
	{
		OFFSET 0.000000 0.000000 0.000000
		CHANNELS 3 Zrotation Yrotation Xrotation
		JOINT RightUpLeg
		{
			OFFSET -1.800000 -1.400000 0.085000
			CHANNELS 3 Zrotation Yrotation Xrotation
			JOINT RightLeg
			{
				OFFSET -2.215000 -6.000000 0.000000
				CHANNELS 3 Zrotation Yrotation Xrotation
				JOINT RightFoot
				{
					OFFSET -2.500000 -6.900000 0.000000
					CHANNELS 3 Zrotation Yrotation Xrotation
					JOINT RightToeBase
					{
						OFFSET -0.200000 -0.500000 1.950000
						CHANNELS 3 Zrotation Yrotation Xrotation
						End Site
						{
							OFFSET 0.000000 0.000000 0.000000
						}
					}
				}
			}
		}
	}
	JOINT LowerBack
	{
		OFFSET 0.000000 0.000000 0.000000
		CHANNELS 3 Zrotation Yrotation Xrotation
		JOINT Spine
		{
			OFFSET -0.087000 1.940000 -0.288900
			CHANNELS 3 Zrotation Yrotation Xrotation
			JOINT Spine1
			{
				OFFSET 0.000000 1.950000 0.060000
				CHANNELS 3 Zrotation Yrotation Xrotation
				JOINT Neck
				{
					OFFSET 0.000000 0.000000 0.000000
					CHANNELS 3 Zrotation Yrotation Xrotation
					JOINT Neck1
					{
						OFFSET 0.000000 1.600000 0.340000
						CHANNELS 3 Zrotation Yrotation Xrotation
						JOINT Head
						{
							OFFSET 0.000000 1.667000 -0.240000
							CHANNELS 3 Zrotation Yrotation Xrotation
							End Site
							{
								OFFSET 0.000000 0.000000 0.000000
							}
						}
					}
				}
				JOINT LeftShoulder
				{
					OFFSET 0.000000 0.000000 0.000000
					CHANNELS 3 Zrotation Yrotation Xrotation
					JOINT LeftArm
					{
						OFFSET 2.700000 1.550000 -0.730000
						CHANNELS 3 Zrotation Yrotation Xrotation
						JOINT LeftForeArm
						{
							OFFSET 5.450000 0.000000 0.000000
							CHANNELS 3 Zrotation Yrotation Xrotation
							JOINT LeftHand
							{
								OFFSET 3.450000 0.000000 0.000000
								CHANNELS 3 Zrotation Yrotation Xrotation
								JOINT LeftHandIndex1
								{
									OFFSET 0.750000 0.000000 0.000000
									CHANNELS 3 Zrotation Yrotation Xrotation
									End Site
									{
										OFFSET 0.000000 0.000000 0.000000
									}
								}
							}
						}
					}
				}
				JOINT RightShoulder
				{
					OFFSET 0.000000 0.000000 0.000000
					CHANNELS 3 Zrotation Yrotation Xrotation
					JOINT RightArm
					{
						OFFSET -2.700000 1.550000 -0.730000
						CHANNELS 3 Zrotation Yrotation Xrotation
						JOINT RightForeArm
						{
							OFFSET -5.450000 0.000000 0.000000
							CHANNELS 3 Zrotation Yrotation Xrotation
							JOINT RightHand
							{
								OFFSET -3.450000 0.000000 0.000000
								CHANNELS 3 Zrotation Yrotation Xrotation
								JOINT RightHandIndex1
								{
									OFFSET -0.750000 0.000000 0.000000
									CHANNELS 3 Zrotation Yrotation Xrotation
									End Site
									{
										OFFSET 0.000000 0.000000 0.000000
									}
								}
							}
						}
					}
				}
			}
		}
	}
}
MOTION
Frames: 7
Frame Time: 0.016667
-2.317860 18.088600 -0.323380 -6.325005 10.324702 -0.745099 -15.219561 11.814725 4.593109 20.075352 -2.538410 -33.941317 -14.842415 10.654379 23.476832 -0.311912 6.411064 2.017418 0.389810 0.477160 0.080640 18.286577 -11.538109 1.768946 -17.365200 3.914472 -8.060322 -20.418766 -8.007505 102.631138 -2.888279 -14.487546 -0.255945 0.475410 0.240910 0.088230 -3.690599 -0.267248 -8.300218 7.267156 4.844534 19.786323 -1.368808 7.751974 18.490228 1.651592 -2.959026 -9.818862 -6.989070 -1.236089 37.925055 3.676780 -4.979420 -14.671050 -2.534068 -40.460450 5.222016 -15.095993 -47.845568 2.783343 87.633502 -50.597271 -49.195002 -3.775689 2.002403 0.171840 0.093760 0.006100 0.142210 -0.794499 47.031218 2.313052 9.436246 43.731342 -3.356440 -77.640337 58.741375 -43.761899 2.235630 -0.489184 -0.136800 0.396820 0.058370 0.017150 
-2.249990 18.031280 -0.306060 -5.882231 10.611448 -1.500861 -15.239005 11.759673 4.699806 20.295615 -3.031094 -34.151976 -15.984528 11.619202 25.452692 -0.247158 6.899956 1.848223 0.384330 0.468350 0.072390 18.294966 -11.427141 1.755726 -19.369086 3.791206 -10.785293 -23.728453 -5.553194 106.688436 -2.993373 -14.846558 -0.337464 0.477420 0.255610 0.088060 -3.673164 -0.474704 -8.340267 7.079664 4.265956 20.922044 -1.290571 6.489086 18.221795 1.102413 -2.799755 -9.353539 -6.908034 -1.113719 38.195448 4.144690 -5.089140 -14.568100 -0.947719 -41.148807 4.388433 -10.255950 -47.694197 0.775261 87.268567 -51.187757 -48.128341 -3.815170 1.996288 0.175610 0.099430 -0.001950 0.141080 -1.330769 47.232248 1.963058 8.889517 44.867513 -3.147866 -80.366986 59.254408 -46.006681 2.160565 -0.352545 -0.146920 0.406050 0.068800 0.017760 
-2.195840 17.978060 -0.278200 -5.994224 10.269912 -2.015203 -15.305958 11.769199 4.736929 20.640119 -2.952170 -34.603202 -16.086788 12.602689 27.753019 -0.179998 7.371807 1.681374 0.372320 0.452050 0.081470 18.273329 -11.120256 1.869910 -19.960422 4.487372 -14.033448 -24.869220 -4.484634 109.164049 -3.055601 -15.089751 -0.392741 0.470220 0.254250 0.087390 -3.528720 -0.906083 -8.405031 6.504183 3.592746 21.925419 -0.397579 5.138879 17.726431 0.728307 -2.714378 -9.140347 -6.914845 -0.221977 38.625122 3.552510 -4.032570 -14.083430 0.047995 -39.719226 4.166406 -8.216170 -46.486789 0.467212 91.770173 -52.914196 -52.774667 -3.818211 1.894598 0.177500 0.108960 -0.004280 0.131030 -1.512451 45.552550 1.912439 8.827445 45.426836 -2.019955 -85.773033 60.609539 -51.296909 1.935191 -0.022130 -0.156520 0.401970 0.072650 0.004250 
-2.123740 17.939020 -0.263610 -6.761635 10.168428 -2.690559 -15.314270 11.745362 4.710153 20.843792 -2.856494 -35.265429 -15.094102 13.197922 30.233797 -0.099297 7.655232 1.577987 0.380270 0.461130 0.120790 18.306975 -10.788807 2.102515 -20.173212 5.093772 -17.813247 -23.874075 -6.215918 110.370653 -3.092454 -15.167992 -0.412783 0.446240 0.200830 0.085300 -3.554229 -1.226926 -8.560676 7.695321 2.292286 23.970025 -0.310405 3.413672 16.620067 0.630132 -2.621860 -9.276139 -6.998232 0.567783 39.558478 2.776560 -2.763360 -14.418600 -0.247729 -37.810332 4.174281 -6.155413 -44.336271 0.793916 99.179358 -57.455773 -63.319861 -3.743714 1.629549 0.196820 0.079930 0.035820 0.121580 -0.982804 43.007959 2.253976 9.541024 45.033323 0.011169 -95.008555 62.728059 -62.185475 1.742958 0.585510 -0.134430 0.375790 0.044800 -0.010770 
-2.058420 17.902800 -0.247490 -7.618366 10.047274 -3.585319 -15.330387 11.841589 4.624305 20.603301 -2.725118 -35.825097 -13.169968 13.378773 32.752407 -0.069481 7.824677 1.509199 0.373660 0.444260 0.142540 18.320588 -10.483714 2.314336 -19.851342 5.728796 -21.276630 -23.111502 -6.899576 110.410413 -3.106023 -15.200274 -0.425503 0.416490 0.159120 0.086260 -3.542281 -1.673773 -8.652497 8.884959 1.042474 26.097948 0.216999 1.809133 15.882147 0.137522 -2.559204 -9.691780 -7.479234 0.784713 40.520752 2.553680 -2.332630 -15.188890 -0.375250 -34.815916 3.590064 -4.568295 -42.780194 2.020540 108.025968 -60.222672 -77.209040 -3.768593 1.604349 0.234800 0.048540 0.069220 0.104870 0.078773 39.280251 3.895261 9.998034 43.132071 2.573329 -108.788861 61.622036 -82.621830 2.027363 0.406718 -0.127380 0.358850 0.039570 -0.027080 
-1.996260 17.877130 -0.230240 -8.288161 9.426434 -4.201051 -15.360685 11.849750 4.627185 20.721210 -2.751470 -36.874064 -11.423729 13.817645 36.071507 -0.009080 8.223333 1.362011 0.335810 0.387650 0.135470 18.342683 -10.144851 2.515412 -19.750990 6.399969 -25.577620 -22.859174 -6.314557 109.237342 -3.070763 -15.168267 -0.430235 0.372090 0.141020 0.087460 -3.512183 -2.064122 -8.781327 9.937622 -0.192627 28.270906 0.552559 0.661391 14.647282 -0.080206 -3.068009 -10.246190 -8.791388 1.620143 41.050277 2.553380 -1.896030 -15.493630 -1.386819 -31.932813 3.677217 -4.857656 -39.563996 2.558956 121.289861 -63.343726 -100.910130 -3.875792 2.340038 0.268740 0.029050 0.079760 0.077370 1.517032 36.246593 4.761178 10.385980 40.139016 2.071471 -124.166958 63.620212 -110.565467 2.271475 -0.920453 -0.134950 0.342240 0.061500 -0.041100 
-1.930660 17.842470 -0.224270 -8.934895 9.120657 -4.449058 -15.379901 11.714926 4.553328 20.374689 -2.966450 -38.223802 -9.130229 13.795658 39.351608 0.038514 8.484419 1.265315 0.349230 0.396090 0.169010 18.397417 -9.699335 2.880157 -20.419221 6.983896 -30.057407 -19.688389 -10.371232 108.146499 -3.049014 -15.157749 -0.450475 0.358080 0.097140 0.094010 -3.540216 -2.308720 -8.953080 11.387684 -1.606611 30.063297 0.490917 -0.176443 12.851390 0.177187 -3.345075 -9.902384 -9.594231 1.638292 41.616803 1.809970 -1.859680 -16.853380 -2.677904 -28.615046 3.385838 -8.416450 -36.030029 1.380299 143.907117 -67.837978 -135.610783 -3.705013 3.159347 0.302630 -0.002870 0.118130 0.064330 2.321020 32.622985 4.581059 11.974095 35.793300 -1.465928 -142.769077 67.741944 -138.674470 2.091843 -1.649285 -0.119400 0.332320 0.050700 -0.052680 
